<svg width="382" height="109" viewBox="0 0 382 109" fill="none" xmlns="http://www.w3.org/2000/svg">
<path d="M12.6496 43.376H0.2144V37.48H32.0528V43.376H19.6176V75H12.6496V43.376ZM60.6149 60.8496C60.6149 61.3141 60.5792 61.9752 60.5077 62.8328H38.0493C38.4424 64.9411 39.4608 66.6205 41.1045 67.8712C42.784 69.0861 44.8565 69.6936 47.3221 69.6936C50.4666 69.6936 53.0573 68.6573 55.0941 66.5848L58.6853 70.712C57.3989 72.2485 55.773 73.4099 53.8077 74.196C51.8424 74.9821 49.6269 75.3752 47.1613 75.3752C44.0168 75.3752 41.2474 74.7499 38.8533 73.4992C36.4592 72.2485 34.601 70.5155 33.2789 68.3C31.9925 66.0488 31.3493 63.5117 31.3493 60.6888C31.3493 57.9016 31.9746 55.4003 33.2253 53.1848C34.5117 50.9336 36.2805 49.1827 38.5317 47.932C40.7829 46.6813 43.32 46.056 46.1429 46.056C48.9301 46.056 51.4136 46.6813 53.5933 47.932C55.8088 49.1469 57.524 50.88 58.7389 53.1312C59.9896 55.3467 60.6149 57.9195 60.6149 60.8496ZM46.1429 51.416C43.9989 51.416 42.1765 52.0592 40.6757 53.3456C39.2106 54.5963 38.3173 56.2757 37.9957 58.384H54.2365C53.9506 56.3115 53.0752 54.632 51.6101 53.3456C50.145 52.0592 48.3226 51.416 46.1429 51.416ZM80.1827 75.3752C77.2168 75.3752 74.5547 74.7499 72.1963 73.4992C69.8379 72.2485 67.9976 70.5155 66.6755 68.3C65.3533 66.0488 64.6923 63.5117 64.6923 60.6888C64.6923 57.8659 65.3533 55.3467 66.6755 53.1312C67.9976 50.9157 69.82 49.1827 72.1427 47.932C74.5011 46.6813 77.1811 46.056 80.1827 46.056C83.0056 46.056 85.4712 46.6277 87.5795 47.7712C89.7235 48.9147 91.3315 50.5584 92.4035 52.7024L87.2579 55.704C86.436 54.3819 85.3997 53.3992 84.1491 52.756C82.9341 52.0771 81.5941 51.7376 80.1291 51.7376C77.6277 51.7376 75.5552 52.5595 73.9115 54.2032C72.2677 55.8112 71.4459 57.9731 71.4459 60.6888C71.4459 63.4045 72.2499 65.5843 73.8579 67.228C75.5016 68.836 77.592 69.64 80.1291 69.64C81.5941 69.64 82.9341 69.3184 84.1491 68.6752C85.3997 67.9963 86.436 66.9957 87.2579 65.6736L92.4035 68.6752C91.2957 70.8192 89.6699 72.4808 87.5259 73.66C85.4176 74.8035 82.9699 75.3752 80.1827 75.3752ZM114.174 46.056C117.783 46.056 120.678 47.1101 122.857 49.2184C125.037 51.3267 126.127 54.4533 126.127 58.5984V75H119.427V59.456C119.427 56.9547 118.837 55.0787 117.658 53.828C116.479 52.5416 114.8 51.8984 112.62 51.8984C110.154 51.8984 108.207 52.6488 106.777 54.1496C105.348 55.6147 104.633 57.7408 104.633 60.528V75H97.9335V35.2288H104.633V49.7008C105.741 48.5216 107.099 47.6283 108.707 47.0208C110.351 46.3776 112.173 46.056 114.174 46.056ZM146.901 75.536C144.006 75.536 141.201 75.1251 138.486 74.3032C135.806 73.4813 133.68 72.3915 132.107 71.0336L134.519 65.62C136.056 66.8349 137.932 67.8355 140.147 68.6216C142.398 69.372 144.65 69.7472 146.901 69.7472C149.688 69.7472 151.761 69.3005 153.118 68.4072C154.512 67.5139 155.209 66.3347 155.209 64.8696C155.209 63.7976 154.816 62.9221 154.03 62.2432C153.279 61.5285 152.314 60.9747 151.135 60.5816C149.956 60.1885 148.348 59.7419 146.311 59.2416C143.453 58.5627 141.13 57.8837 139.343 57.2048C137.592 56.5259 136.074 55.4717 134.787 54.0424C133.537 52.5773 132.911 50.612 132.911 48.1464C132.911 46.0739 133.465 44.1979 134.573 42.5184C135.716 40.8032 137.414 39.4453 139.665 38.4448C141.952 37.4443 144.739 36.944 148.026 36.944C150.313 36.944 152.565 37.2299 154.78 37.8016C156.996 38.3733 158.907 39.1952 160.515 40.2672L158.318 45.6808C156.674 44.716 154.959 43.9835 153.172 43.4832C151.385 42.9829 149.652 42.7328 147.973 42.7328C145.221 42.7328 143.167 43.1973 141.809 44.1264C140.487 45.0555 139.826 46.2883 139.826 47.8248C139.826 48.8968 140.201 49.7723 140.951 50.4512C141.737 51.1301 142.72 51.6661 143.899 52.0592C145.078 52.4523 146.686 52.8989 148.723 53.3992C151.51 54.0424 153.797 54.7213 155.584 55.436C157.371 56.1149 158.889 57.1691 160.14 58.5984C161.426 60.0277 162.07 61.9573 162.07 64.3872C162.07 66.4597 161.498 68.3357 160.354 70.0152C159.247 71.6947 157.549 73.0347 155.262 74.0352C152.976 75.0357 150.188 75.536 146.901 75.536ZM179.27 46.056C183.487 46.056 186.703 47.0744 188.918 49.1112C191.169 51.1123 192.295 54.1496 192.295 58.2232V75H185.97V71.516C185.148 72.7667 183.969 73.7315 182.433 74.4104C180.932 75.0536 179.109 75.3752 176.965 75.3752C174.821 75.3752 172.945 75.0179 171.337 74.3032C169.729 73.5528 168.479 72.5344 167.585 71.248C166.728 69.9259 166.299 68.4429 166.299 66.7992C166.299 64.2264 167.246 62.1717 169.14 60.6352C171.069 59.0629 174.089 58.2768 178.198 58.2768H185.595V57.848C185.595 55.8469 184.988 54.3104 183.773 53.2384C182.593 52.1664 180.825 51.6304 178.466 51.6304C176.858 51.6304 175.268 51.8805 173.696 52.3808C172.159 52.8811 170.855 53.5779 169.783 54.4712L167.157 49.5936C168.657 48.4501 170.462 47.5747 172.57 46.9672C174.678 46.3597 176.912 46.056 179.27 46.056ZM178.359 70.4976C180.038 70.4976 181.521 70.1224 182.808 69.372C184.13 68.5859 185.059 67.4781 185.595 66.0488V62.7256H178.681C174.821 62.7256 172.892 63.9941 172.892 66.5312C172.892 67.7461 173.374 68.7109 174.339 69.4256C175.304 70.1403 176.644 70.4976 178.359 70.4976ZM237.02 46.056C240.629 46.056 243.488 47.1101 245.596 49.2184C247.704 51.2909 248.758 54.4176 248.758 58.5984V75H242.058V59.456C242.058 56.9547 241.505 55.0787 240.397 53.828C239.289 52.5416 237.699 51.8984 235.626 51.8984C233.375 51.8984 231.571 52.6488 230.213 54.1496C228.855 55.6147 228.176 57.7229 228.176 60.4744V75H221.476V59.456C221.476 56.9547 220.922 55.0787 219.814 53.828C218.707 52.5416 217.117 51.8984 215.044 51.8984C212.757 51.8984 210.935 52.6309 209.577 54.096C208.255 55.5611 207.594 57.6872 207.594 60.4744V75H200.894V46.3776H207.272V50.0224C208.344 48.736 209.684 47.7533 211.292 47.0744C212.9 46.3955 214.687 46.056 216.652 46.056C218.796 46.056 220.69 46.4669 222.334 47.2888C224.013 48.0749 225.335 49.2541 226.3 50.8264C227.479 49.3256 228.998 48.1643 230.856 47.3424C232.714 46.4848 234.769 46.056 237.02 46.056ZM273.186 46.056C275.973 46.056 278.456 46.6635 280.636 47.8784C282.852 49.0933 284.585 50.8085 285.835 53.024C287.086 55.2395 287.711 57.7944 287.711 60.6888C287.711 63.5832 287.086 66.156 285.835 68.4072C284.585 70.6227 282.852 72.3379 280.636 73.5528C278.456 74.7677 275.973 75.3752 273.186 75.3752C269.327 75.3752 266.271 74.0888 264.02 71.516V85.3984H257.32V46.3776H263.699V50.1296C264.806 48.7717 266.164 47.7533 267.772 47.0744C269.416 46.3955 271.22 46.056 273.186 46.056ZM272.435 69.64C274.901 69.64 276.92 68.8181 278.492 67.1744C280.1 65.5307 280.904 63.3688 280.904 60.6888C280.904 58.0088 280.1 55.8469 278.492 54.2032C276.92 52.5595 274.901 51.7376 272.435 51.7376C270.827 51.7376 269.38 52.1128 268.094 52.8632C266.807 53.5779 265.789 54.6141 265.039 55.972C264.288 57.3299 263.913 58.9021 263.913 60.6888C263.913 62.4755 264.288 64.0477 265.039 65.4056C265.789 66.7635 266.807 67.8176 268.094 68.568C269.38 69.2827 270.827 69.64 272.435 69.64ZM294.065 35.2288H300.765V75H294.065V35.2288ZM336.466 60.8496C336.466 61.3141 336.431 61.9752 336.359 62.8328H313.901C314.294 64.9411 315.312 66.6205 316.956 67.8712C318.636 69.0861 320.708 69.6936 323.174 69.6936C326.318 69.6936 328.909 68.6573 330.946 66.5848L334.537 70.712C333.25 72.2485 331.625 73.4099 329.659 74.196C327.694 74.9821 325.478 75.3752 323.013 75.3752C319.868 75.3752 317.099 74.7499 314.705 73.4992C312.311 72.2485 310.453 70.5155 309.13 68.3C307.844 66.0488 307.201 63.5117 307.201 60.6888C307.201 57.9016 307.826 55.4003 309.077 53.1848C310.363 50.9336 312.132 49.1827 314.383 47.932C316.634 46.6813 319.172 46.056 321.994 46.056C324.782 46.056 327.265 46.6813 329.445 47.932C331.66 49.1469 333.376 50.88 334.59 53.1312C335.841 55.3467 336.466 57.9195 336.466 60.8496ZM321.994 51.416C319.85 51.416 318.028 52.0592 316.527 53.3456C315.062 54.5963 314.169 56.2757 313.847 58.384H330.088C329.802 56.3115 328.927 54.632 327.462 53.3456C325.997 52.0592 324.174 51.416 321.994 51.416ZM351.746 75.3752C349.424 75.3752 347.154 75.0715 344.939 74.464C342.724 73.8565 340.955 73.0883 339.633 72.1592L342.205 67.0672C343.492 67.9248 345.028 68.6216 346.815 69.1576C348.637 69.6579 350.424 69.908 352.175 69.908C356.177 69.908 358.178 68.8539 358.178 66.7456C358.178 65.7451 357.66 65.0483 356.624 64.6552C355.623 64.2621 353.997 63.8869 351.746 63.5296C349.388 63.1723 347.458 62.7613 345.957 62.2968C344.492 61.8323 343.206 61.0283 342.098 59.8848C341.026 58.7056 340.49 57.0797 340.49 55.0072C340.49 52.2915 341.616 50.1296 343.867 48.5216C346.154 46.8779 349.227 46.056 353.086 46.056C355.052 46.056 357.017 46.2883 358.982 46.7528C360.948 47.1816 362.556 47.7712 363.806 48.5216L361.233 53.6136C358.804 52.1843 356.07 51.4696 353.033 51.4696C351.067 51.4696 349.566 51.7733 348.53 52.3808C347.53 52.9525 347.029 53.7208 347.029 54.6856C347.029 55.7576 347.565 56.5259 348.637 56.9904C349.745 57.4192 351.442 57.8301 353.729 58.2232C356.016 58.5805 357.892 58.9915 359.357 59.456C360.822 59.9205 362.073 60.7067 363.109 61.8144C364.181 62.9221 364.717 64.4944 364.717 66.5312C364.717 69.2112 363.556 71.3552 361.233 72.9632C358.911 74.5712 355.748 75.3752 351.746 75.3752Z" fill="white"/>
<path d="M141.6 19H118.4V8H177.8V19H154.6V78H141.6V19Z" fill="white" fill-opacity="0.2"/>
<path d="M194.1 102C188.7 102 183.467 101.233 178.4 99.7C173.4 98.1667 169.433 96.1333 166.5 93.6L171 83.5C173.867 85.7667 177.367 87.6333 181.5 89.1C185.7 90.5 189.9 91.2 194.1 91.2C199.3 91.2 203.167 90.3667 205.7 88.7C208.3 87.0333 209.6 84.8333 209.6 82.1C209.6 80.1 208.867 78.4667 207.4 77.2C206 75.8667 204.2 74.8333 202 74.1C199.8 73.3667 196.8 72.5333 193 71.6C187.667 70.3333 183.333 69.0667 180 67.8C176.733 66.5333 173.9 64.5667 171.5 61.9C169.167 59.1667 168 55.5 168 50.9C168 47.0333 169.033 43.5333 171.1 40.4C173.233 37.2 176.4 34.6667 180.6 32.8C184.867 30.9333 190.067 30 196.2 30C200.467 30 204.667 30.5333 208.8 31.6C212.933 32.6667 216.5 34.2 219.5 36.2L215.4 46.3C212.333 44.5 209.133 43.1333 205.8 42.2C202.467 41.2667 199.233 40.8 196.1 40.8C190.967 40.8 187.133 41.6667 184.6 43.4C182.133 45.1333 180.9 47.4333 180.9 50.3C180.9 52.3 181.6 53.9333 183 55.2C184.467 56.4667 186.3 57.4667 188.5 58.2C190.7 58.9333 193.7 59.7667 197.5 60.7C202.7 61.9 206.967 63.1667 210.3 64.5C213.633 65.7667 216.467 67.7333 218.8 70.4C221.2 73.0667 222.4 76.6667 222.4 81.2C222.4 85.0667 221.333 88.5667 219.2 91.7C217.133 94.8333 213.967 97.3333 209.7 99.2C205.433 101.067 200.233 102 194.1 102Z" fill="white" fill-opacity="0.2"/>
</svg>
