<svg width="35" height="43" viewBox="0 0 35 43" fill="none" xmlns="http://www.w3.org/2000/svg">
<path d="M7.552 12.12H0.128V8.6H19.136V12.12H11.712V31H7.552V12.12Z" fill="white"/>
<path d="M23.952 39.32C22.224 39.32 20.5493 39.0747 18.928 38.584C17.328 38.0933 16.0587 37.4427 15.12 36.632L16.56 33.4C17.4773 34.1253 18.5973 34.7227 19.92 35.192C21.264 35.64 22.608 35.864 23.952 35.864C25.616 35.864 26.8533 35.5973 27.664 35.064C28.496 34.5307 28.912 33.8267 28.912 32.952C28.912 32.312 28.6773 31.7893 28.208 31.384C27.76 30.9573 27.184 30.6267 26.48 30.392C25.776 30.1573 24.816 29.8907 23.6 29.592C21.8933 29.1867 20.5067 28.7813 19.44 28.376C18.3947 27.9707 17.488 27.3413 16.72 26.488C15.9733 25.6133 15.6 24.44 15.6 22.968C15.6 21.7307 15.9307 20.6107 16.592 19.608C17.2747 18.584 18.288 17.7733 19.632 17.176C20.9973 16.5787 22.6613 16.28 24.624 16.28C25.9893 16.28 27.3333 16.4507 28.656 16.792C29.9787 17.1333 31.12 17.624 32.08 18.264L30.768 21.496C29.7867 20.92 28.7627 20.4827 27.696 20.184C26.6293 19.8853 25.5947 19.736 24.592 19.736C22.9493 19.736 21.7227 20.0133 20.912 20.568C20.1227 21.1227 19.728 21.8587 19.728 22.776C19.728 23.416 19.952 23.9387 20.4 24.344C20.8693 24.7493 21.456 25.0693 22.16 25.304C22.864 25.5387 23.824 25.8053 25.04 26.104C26.704 26.488 28.0693 26.8933 29.136 27.32C30.2027 27.7253 31.1093 28.3547 31.856 29.208C32.624 30.0613 33.008 31.2133 33.008 32.664C33.008 33.9013 32.6667 35.0213 31.984 36.024C31.3227 37.0267 30.3093 37.8267 28.944 38.424C27.5787 39.0213 25.9147 39.32 23.952 39.32Z" fill="white"/>
</svg>
